<svg width="200" height="56" viewBox="0 0 200 56" fill="none" xmlns="http://www.w3.org/2000/svg">
<path d="M0 25.668C0 25.1506 0.277193 24.2636 0.831578 23.007C1.38596 21.7504 2.27298 20.4383 3.49263 19.0709C4.71227 17.7034 6.07976 17.0381 7.59508 17.0751C9.1104 17.0751 10.33 17.5001 11.254 18.3502C12.178 19.2002 12.6585 20.3829 12.6954 21.8982C12.6215 22.6004 12.5661 22.9885 12.5291 23.0624C12.5291 23.1733 12.2334 24.0234 11.6421 25.6126C11.0507 27.2018 10.4409 28.9943 9.81262 30.9901C9.18431 32.9859 8.88864 34.5752 8.9256 35.7578C8.9256 37.3471 9.18431 38.4559 9.70174 39.0842C10.2192 39.7125 10.9953 40.0451 12.0302 40.0821C12.8802 40.0821 13.6748 39.8788 14.414 39.4722C15.1532 39.0657 15.7261 38.6406 16.1326 38.1971C16.5392 37.7536 17.0381 37.1438 17.6294 36.3677C17.6294 36.3307 17.7218 35.9611 17.9066 35.2589C18.0914 34.5567 18.3501 33.4664 18.6828 31.988C19.0154 30.5097 19.3665 29.1422 19.7361 27.8856C21.1406 22.3417 21.9167 19.4404 22.0645 19.1817C22.545 18.1838 23.3396 17.6849 24.4484 17.6849C24.9289 17.6849 25.3169 17.8142 25.6126 18.073C25.9083 18.3317 26.1115 18.5534 26.2224 18.7382C26.3333 18.923 26.3703 19.0893 26.3333 19.2372C26.3333 19.7176 25.4278 23.5983 23.6168 30.8793C21.8058 38.1602 20.771 42.1518 20.5123 42.854C19.4774 45.9216 17.6849 48.3609 15.1347 50.1719C12.5845 51.9829 10.0344 52.9068 7.4842 52.9438C5.82104 52.9438 4.36116 52.5372 3.10456 51.7241C1.84795 50.911 1.21965 49.6914 1.21965 48.0652C1.21965 47.2521 1.349 46.5684 1.60772 46.014C1.86643 45.4596 2.21754 45.053 2.66105 44.7943C3.10456 44.5356 3.47415 44.3508 3.76982 44.2399C4.06549 44.1291 4.37964 44.0736 4.71227 44.0736C6.33847 44.0736 7.15157 44.8498 7.15157 46.402C7.15157 47.1412 6.92981 47.788 6.48631 48.3424C6.0428 48.8968 5.61777 49.2664 5.21122 49.4512C4.80467 49.636 4.56444 49.7284 4.49052 49.7284L4.3242 49.7838C4.39812 49.9686 4.74923 50.1903 5.37754 50.4491C6.00584 50.7078 6.63414 50.8371 7.26245 50.8371H7.70595C8.33426 50.8371 8.81472 50.8002 9.14736 50.7262C10.367 50.3936 11.4943 49.6914 12.5291 48.6196C13.564 47.5478 14.3586 46.402 14.913 45.1824C15.4673 43.9627 15.8924 42.9279 16.188 42.0778C16.4837 41.2278 16.6316 40.6734 16.6316 40.4147L16.2989 40.6364C16.0772 40.7843 15.7261 40.9875 15.2456 41.2463C14.7651 41.505 14.2847 41.7267 13.8042 41.9115C13.065 42.0963 12.3443 42.1887 11.6421 42.1887C9.94197 42.1887 8.44513 41.7822 7.15157 40.9691C5.858 40.156 5.00795 38.8439 4.6014 37.0329C4.56444 36.7742 4.54596 36.2014 4.54596 35.3143C4.54596 33.2077 5.19274 30.4542 6.48631 27.054C7.77987 23.6538 8.42665 21.4917 8.42665 20.5677C8.42665 20.5307 8.42665 20.4938 8.42665 20.4568C8.42665 20.1242 8.42665 19.9024 8.42665 19.7916C8.42665 19.6807 8.35274 19.5513 8.2049 19.4035C8.05706 19.2556 7.85379 19.1817 7.59508 19.1817H7.37332C6.52327 19.1817 5.74713 19.5328 5.04491 20.2351C4.34268 20.9373 3.7883 21.6949 3.38175 22.508C2.9752 23.3211 2.66105 24.0973 2.43929 24.8365C2.21754 25.5756 2.0697 25.9822 1.99579 26.0561C1.92187 26.13 1.6262 26.167 1.10877 26.167H0.332631C0.110877 25.9452 0 25.7789 0 25.668Z" fill="black"/>
<path d="M44.506 22.3417C44.506 21.8613 44.7648 21.4917 45.2822 21.233H80.5965C81.1509 21.5286 81.4281 21.8982 81.4281 22.3417C81.4281 22.7483 81.1694 23.0994 80.652 23.3951L63.0225 23.4505H45.3931C44.8017 23.2657 44.506 22.8961 44.506 22.3417ZM44.506 33.0968C44.506 32.5424 44.8017 32.1728 45.3931 31.988H80.652C81.1694 32.3576 81.4281 32.7272 81.4281 33.0968C81.4281 33.5773 81.1509 33.9469 80.5965 34.2056H45.2822C44.7648 33.9469 44.506 33.5773 44.506 33.0968Z" fill="black"/>
<path d="M106.475 50.5599C106.549 50.5599 106.66 50.5969 106.808 50.6708C106.956 50.7447 107.159 50.8002 107.418 50.8371C107.676 50.8741 107.898 50.8926 108.083 50.8926C108.563 50.8926 109.007 50.6523 109.413 50.1719C109.82 49.6914 110.116 49.1555 110.3 48.5641C110.67 47.5662 111.298 44.7389 112.185 40.082C113.072 35.4252 113.922 30.9901 114.736 26.7768C115.549 22.5635 115.955 20.4383 115.955 20.4014V20.2351H113.35C111.613 20.2351 110.689 20.1981 110.578 20.1242C110.43 20.0133 110.356 19.8285 110.356 19.5698L110.744 18.0175C110.818 17.8327 110.966 17.7403 111.187 17.7403C111.409 17.7403 112.278 17.7218 113.793 17.6849C115.567 17.6849 116.454 17.6664 116.454 17.6294C116.454 17.5555 116.62 16.6316 116.953 14.8575C117.286 13.0835 117.507 12.0117 117.618 11.6421C118.986 5.54385 121.684 2.49473 125.712 2.49473C127.08 2.56865 128.207 2.9752 129.094 3.71438C129.981 4.45356 130.425 5.43297 130.425 6.65262C130.425 7.98315 130.037 8.94408 129.26 9.53542C128.484 10.1268 127.708 10.4409 126.932 10.4779C125.306 10.4779 124.493 9.70174 124.493 8.14946C124.493 7.44724 124.696 6.83742 125.103 6.31999C125.509 5.80256 125.953 5.41449 126.433 5.15578L126.932 4.87859C126.341 4.65683 125.786 4.54596 125.269 4.54596C124.825 4.54596 124.4 4.73075 123.994 5.10034C123.587 5.46993 123.31 5.98736 123.162 6.65262C122.904 7.72443 122.608 9.16583 122.275 10.9768C121.943 12.7878 121.647 14.3216 121.388 15.5782C121.129 16.8348 121 17.5001 121 17.574C121 17.6479 122.016 17.6849 124.049 17.6849C125.712 17.6849 126.673 17.7034 126.932 17.7403C127.191 17.7773 127.394 17.8882 127.542 18.073C127.579 18.2208 127.542 18.5349 127.431 19.0154C127.32 19.4959 127.228 19.7916 127.154 19.9024C127.08 20.0872 126.914 20.1796 126.655 20.1796C126.396 20.1796 125.398 20.1981 123.661 20.2351H120.557L119.282 26.9986C117.507 36.1644 116.269 41.893 115.567 44.1845C114.569 47.326 113.276 49.6544 111.686 51.1698C110.319 52.3524 108.97 52.9438 107.639 52.9438C106.457 52.9438 105.385 52.5927 104.424 51.8905C103.463 51.1882 102.983 50.1903 102.983 48.8968C102.983 47.5293 103.371 46.5314 104.147 45.9031C104.923 45.2748 105.699 44.9606 106.475 44.9606C108.101 44.9606 108.915 45.7368 108.915 47.2891C108.915 47.9913 108.711 48.6011 108.305 49.1185C107.898 49.636 107.455 50.024 106.974 50.2827L106.475 50.5599Z" fill="black"/>
<path d="M135.636 27.7193C135.636 25.1691 135.821 22.7483 136.19 20.4568C136.56 18.1654 136.985 16.188 137.465 14.5249C137.946 12.8617 138.63 11.2355 139.517 9.6463C140.404 8.05706 141.106 6.81894 141.623 5.93192C142.141 5.04491 142.917 4.08397 143.952 3.04912C144.987 2.01427 145.596 1.38596 145.781 1.16421C145.966 0.942455 146.428 0.554385 147.167 0H147.888H148.11C148.627 0 148.886 0.166316 148.886 0.498947C148.886 0.609824 148.572 0.997893 147.943 1.66316C147.315 2.32842 146.557 3.30783 145.67 4.6014C144.783 5.89496 143.878 7.4842 142.954 9.36911C142.03 11.254 141.254 13.8042 140.625 17.0196C139.997 20.2351 139.683 23.8016 139.683 27.7193C139.683 31.6369 139.997 35.185 140.625 38.3635C141.254 41.5419 142.011 44.1106 142.898 46.0694C143.785 48.0282 144.691 49.6175 145.615 50.8371C146.539 52.0568 147.315 53.0362 147.943 53.7754C148.572 54.5145 148.886 54.9026 148.886 54.9396C148.886 55.2722 148.609 55.4385 148.054 55.4385H147.888H147.167L145.615 54.108C142.141 50.9665 139.609 47.0488 138.02 42.355C136.431 37.6612 135.636 32.7826 135.636 27.7193Z" fill="black"/>
<path d="M154.873 25.5572C155.132 24.0049 156.13 22.2124 157.867 20.1796C159.604 18.1469 161.747 17.112 164.298 17.0751C165.591 17.0751 166.774 17.4077 167.846 18.073C168.917 18.7382 169.712 19.5698 170.23 20.5677C171.782 18.2393 173.648 17.0751 175.829 17.0751C177.196 17.0751 178.379 17.4816 179.377 18.2947C180.375 19.1078 180.892 20.1981 180.929 21.5656C180.929 22.6374 180.67 23.5059 180.153 24.1712C179.636 24.8365 179.137 25.243 178.656 25.3908C178.176 25.5387 177.751 25.6126 177.381 25.6126C176.679 25.6126 176.106 25.4093 175.663 25.0028C175.219 24.5962 174.997 24.0603 174.997 23.3951C174.997 21.6949 175.921 20.5307 177.769 19.9024C177.363 19.422 176.623 19.1817 175.552 19.1817C175.071 19.1817 174.72 19.2187 174.498 19.2926C173.094 19.8839 172.059 21.1036 171.394 22.9515C169.176 31.1195 168.067 35.8872 168.067 37.2547C168.067 38.2895 168.363 39.0287 168.954 39.4722C169.546 39.9157 170.193 40.1375 170.895 40.1375C172.262 40.1375 173.611 39.5277 174.942 38.308C176.272 37.0884 177.178 35.5915 177.658 33.8175C177.769 33.4479 177.88 33.2446 177.991 33.2077C178.102 33.1707 178.397 33.1338 178.878 33.0968H179.1C179.654 33.0968 179.931 33.2446 179.931 33.5403C179.931 33.5773 179.894 33.7805 179.82 34.1501C179.229 36.2568 178.083 38.1232 176.383 39.7494C174.683 41.3756 172.706 42.1887 170.451 42.1887C167.864 42.1887 165.905 41.0245 164.575 38.6961C163.059 40.9875 161.322 42.1333 159.364 42.1333H159.031C157.22 42.1333 155.926 41.6528 155.15 40.6919C154.374 39.7309 153.968 38.7146 153.931 37.6428C153.931 36.4601 154.282 35.4991 154.984 34.76C155.686 34.0208 156.518 33.6512 157.479 33.6512C159.068 33.6512 159.863 34.4273 159.863 35.9796C159.863 36.7188 159.641 37.3656 159.197 37.9199C158.754 38.4743 158.329 38.8439 157.922 39.0287C157.516 39.2135 157.275 39.3059 157.201 39.3059L157.035 39.3613C157.035 39.3983 157.146 39.4722 157.368 39.5831C157.59 39.694 157.885 39.8233 158.255 39.9712C158.624 40.119 158.976 40.1744 159.308 40.1375C160.639 40.1375 161.784 39.3059 162.745 37.6428C163.078 37.0514 163.503 35.7948 164.02 33.8729C164.538 31.9511 165.055 29.9553 165.573 27.8856C166.09 25.8159 166.386 24.5962 166.46 24.2266C166.645 23.2287 166.737 22.508 166.737 22.0645C166.737 21.0297 166.46 20.2905 165.905 19.847C165.351 19.4035 164.723 19.1817 164.02 19.1817C162.542 19.1817 161.156 19.7731 159.863 20.9558C158.569 22.1384 157.663 23.6538 157.146 25.5017C157.072 25.8344 156.98 26.0191 156.869 26.0561C156.758 26.0931 156.462 26.13 155.982 26.167H155.206C154.984 25.9452 154.873 25.742 154.873 25.5572Z" fill="black"/>
<path d="M187.027 0.0554385L187.249 0C187.434 0 187.619 0 187.804 0H188.469L190.021 1.33052C193.495 4.47204 196.027 8.3897 197.616 13.0835C199.205 17.7773 200 22.6559 200 27.7193C200 30.2325 199.815 32.6533 199.446 34.9817C199.076 37.3101 198.651 39.2874 198.171 40.9136C197.69 42.5398 197.006 44.166 196.119 45.7922C195.232 47.4184 194.53 48.6565 194.013 49.5066C193.495 50.3567 192.738 51.2991 191.74 52.334C190.742 53.3688 190.15 53.9786 189.966 54.1634C189.781 54.3482 189.356 54.6993 188.691 55.2168C188.58 55.3276 188.506 55.4016 188.469 55.4385H187.804C187.508 55.4385 187.305 55.4385 187.194 55.4385C187.083 55.4385 186.99 55.3831 186.917 55.2722C186.843 55.1613 186.787 54.995 186.75 54.7733C186.787 54.7363 186.99 54.4961 187.36 54.0526C193.089 48.1022 195.953 39.3244 195.953 27.7193C195.953 16.1141 193.089 7.33636 187.36 1.38596C186.99 0.942455 186.787 0.702221 186.75 0.665262C186.75 0.36959 186.843 0.166316 187.027 0.0554385Z" fill="black"/>
</svg>
